<svg width="1360" height="680" viewBox="0 0 1360 680" fill="none" xmlns="http://www.w3.org/2000/svg" role="img" aria-label="Neighborhood shopping center, elevation study">
  <rect width="1360" height="680" fill="#EFEBE3"/>
  <g stroke="#E3DDD1" stroke-width="1"><line x1="0" y1="230" x2="1360" y2="230"/><line x1="0" y1="450" x2="1360" y2="450"/><line x1="340" y1="0" x2="340" y2="680"/><line x1="680" y1="0" x2="680" y2="680"/><line x1="1020" y1="0" x2="1020" y2="680"/></g>
  <circle cx="1160" cy="200" r="42" stroke="#C88A67" stroke-width="1.5" fill="none"/>
  <line x1="0" y1="560" x2="1360" y2="560" stroke="#B8AF9E" stroke-width="2"/>
  <g stroke="#1A1917" stroke-width="2.2" fill="none" stroke-linejoin="round">
    <path d="M120 340 L120 560 L1240 560 L1240 340"/>
    <path d="M90 340 L680 250 L1270 340"/>
    <g stroke="#6F6A62" stroke-width="1.2">
      <line x1="120" y1="420" x2="1240" y2="420"/>
      <line x1="320" y1="420" x2="320" y2="560"/>
      <line x1="520" y1="420" x2="520" y2="560"/>
      <line x1="720" y1="420" x2="720" y2="560"/>
      <line x1="920" y1="420" x2="920" y2="560"/>
      <line x1="1120" y1="420" x2="1120" y2="560"/>
    </g>
    <rect x="620" y="450" width="120" height="110" stroke="#A45A3B" stroke-width="2.2"/>
  </g>
</svg>
