<svg width="900" height="680" viewBox="0 0 900 680" fill="none" xmlns="http://www.w3.org/2000/svg" role="img" aria-label="Educational facility, elevation study">
  <rect width="900" height="680" fill="#EFEBE3"/>
  <g stroke="#E3DDD1" stroke-width="1"><line x1="0" y1="230" x2="900" y2="230"/><line x1="0" y1="450" x2="900" y2="450"/><line x1="300" y1="0" x2="300" y2="680"/><line x1="600" y1="0" x2="600" y2="680"/></g>
  <line x1="0" y1="560" x2="900" y2="560" stroke="#B8AF9E" stroke-width="2"/>
  <g stroke="#1A1917" stroke-width="2.2" fill="none" stroke-linejoin="round">
    <rect x="120" y="230" width="660" height="330"/>
    <path d="M120 230 L450 150 L780 230"/>
    <g stroke="#6F6A62" stroke-width="1.2">
      <line x1="120" y1="350" x2="780" y2="350"/>
      <line x1="120" y1="460" x2="780" y2="460"/>
      <line x1="340" y1="230" x2="340" y2="560"/>
      <line x1="560" y1="230" x2="560" y2="560"/>
    </g>
    <rect x="180" y="470" width="70" height="90" stroke="#A45A3B" stroke-width="2"/>
    <rect x="290" y="470" width="70" height="90" stroke="#A45A3B" stroke-width="2"/>
    <line x1="450" y1="150" x2="450" y2="230"/>
  </g>
</svg>
